<?xml version="1.0" standalone="no"?>
<!DOCTYPE svg PUBLIC "-//W3C//DTD SVG 20010904//EN"
 "http://www.w3.org/TR/2001/REC-SVG-20010904/DTD/svg10.dtd">
<svg version="1.0" xmlns="http://www.w3.org/2000/svg"
 width="448.000000pt" height="576.000000pt" viewBox="0 0 448.000000 576.000000"
 preserveAspectRatio="xMidYMid meet">

<g transform="translate(0.000000,576.000000) scale(0.100000,-0.100000)"
fill="#000000" stroke="none">
<path d="M0 2880 l0 -2880 2240 0 2240 0 0 2880 0 2880 -2240 0 -2240 0 0
-2880z m1425 2256 c239 -19 327 -30 393 -49 48 -14 71 -25 68 -33 -3 -7 0 -14
5 -16 6 -2 -17 -18 -50 -35 -34 -18 -61 -27 -61 -21 0 7 -5 6 -15 -2 -10 -8
-47 -12 -112 -11 -106 2 -244 11 -253 16 -3 2 -48 7 -100 10 -52 4 -109 13
-127 20 -76 32 -77 107 -1 122 43 9 131 8 253 -1z m43 -381 c34 -4 62 -9 62
-12 0 -16 -49 -84 -64 -89 -10 -3 -52 -3 -92 1 -63 6 -77 11 -94 32 -25 33
-25 48 1 67 22 15 64 15 187 1z m87 -33 c-6 -4 -21 -20 -33 -36 -12 -16 -22
-24 -22 -19 0 16 40 63 53 63 8 0 8 -3 2 -8z m700 -553 c-22 -10 -46 -19 -53
-19 -7 0 -35 -11 -62 -25 -28 -14 -50 -23 -50 -20 0 7 100 57 145 71 58 18 66
15 20 -7z m-139 -1416 c-108 -154 -145 -210 -146 -223 0 -21 -110 -137 -110
-117 0 9 24 50 53 91 28 41 70 101 92 133 54 79 126 165 133 159 3 -3 -7 -23
-22 -43z m-163 -25 c-78 -127 -403 -579 -403 -561 0 5 11 38 25 74 14 35 24
70 23 76 -2 7 -22 -5 -47 -28 -24 -22 -46 -37 -49 -34 -14 13 81 175 136 234
31 34 113 104 182 156 120 91 150 109 133 83z m105 -166 c-28 -70 -55 -122
-64 -122 -6 0 -21 -20 -34 -45 -25 -49 -52 -64 -74 -42 -17 17 -10 28 27 45
15 6 26 15 25 19 -2 14 15 48 34 64 10 9 18 19 18 22 0 9 54 67 63 67 5 0 7
-4 5 -8z m-67 -159 c-12 -20 -14 -14 -5 12 4 9 9 14 11 11 3 -2 0 -13 -6 -23z
m-146 -13 c-3 -5 -11 -10 -16 -10 -6 0 -7 5 -4 10 3 6 11 10 16 10 6 0 7 -4 4
-10z m133 -22 c-2 -6 -10 -13 -16 -14 -7 -1 -8 0 -2 3 5 2 8 9 4 14 -3 5 0 9
6 9 7 0 10 -5 8 -12z m-133 -30 c28 -6 56 -12 64 -14 16 -5 -85 -121 -107
-123 -15 -1 -32 40 -32 78 0 16 -7 34 -15 41 -26 21 -19 41 13 34 15 -3 50
-10 77 -16z m-20 -299 c-5 -40 -12 -46 -31 -27 -14 14 -14 17 7 37 13 11 24
21 25 21 2 0 1 -14 -1 -31z m-420 -96 c-7 -32 -22 -50 -31 -40 -9 9 16 67 28
67 6 0 7 -11 3 -27z m289 -329 c-15 -31 -30 -52 -32 -46 -2 6 -10 8 -18 5 -10
-3 -14 2 -14 19 0 16 13 34 42 56 23 17 43 30 46 28 2 -3 -9 -31 -24 -62z
m-78 -192 c-14 -14 -16 -14 -22 2 -4 10 1 25 12 38 l19 20 3 -22 c2 -12 -3
-30 -12 -38z m-103 9 c4 -19 -12 -72 -26 -86 -6 -7 -7 -1 -3 18 8 32 -8 67
-30 67 -8 0 -13 4 -10 8 9 16 65 10 69 -7z m-153 -36 c0 -8 -7 -15 -15 -15
-16 0 -20 12 -8 23 11 12 23 8 23 -8z m277 -27 c-3 -8 -6 -5 -6 6 -1 11 2 17
5 13 3 -3 4 -12 1 -19z m-26 -61 c-8 -8 -11 -7 -11 4 0 9 3 19 7 23 4 4 9 2
11 -4 3 -7 -1 -17 -7 -23z m-247 -12 c3 -8 12 -15 21 -15 8 0 15 -7 15 -15 0
-23 -26 -18 -44 10 -18 28 -20 35 -7 35 5 0 11 -7 15 -15z m1541 -266 c13 0
15 -3 6 -6 -16 -7 -118 15 -125 26 -3 4 18 2 47 -6 28 -7 61 -13 72 -14z"/>
</g>
</svg>
